<?xml version="1.0" encoding="UTF-8"?>
<!DOCTYPE svg PUBLIC "-//W3C//DTD SVG 1.1//EN" "http://www.w3.org/Graphics/SVG/1.1/DTD/svg11.dtd">
<!-- Creator: CorelDRAW 2018 (64-Bit) -->
<svg xmlns="http://www.w3.org/2000/svg" xml:space="preserve" width="520px" height="489px" version="1.1" style="shape-rendering:geometricPrecision; text-rendering:geometricPrecision; image-rendering:optimizeQuality; fill-rule:evenodd; clip-rule:evenodd"
viewBox="0 0 30.97 29.15"
 xmlns:xlink="http://www.w3.org/1999/xlink">
 <defs>
  <style type="text/css">
   <![CDATA[
    .fil0 {fill:black;fill-rule:nonzero}
   ]]>
  </style>
 </defs>
 <g id="Слой_x0020_1">
  <metadata id="CorelCorpID_0Corel-Layer"/>
  <path class="fil0" d="M30.78 5.54c-0.19,-0.25 -0.48,-0.41 -0.8,-0.41l-22.36 0c-0.04,0 -0.09,0.01 -0.13,0.01l-0.92 -2.65c-0.1,-0.27 -0.31,-0.49 -0.57,-0.6l-4.64 -1.82c-0.51,-0.2 -1.09,0.05 -1.29,0.56 -0.2,0.51 0.05,1.09 0.56,1.29l4.21 1.65 5.16 14.86c-0.23,0.08 -0.42,0.26 -0.51,0.5l-1.49 4.14c-0.09,0.26 -0.06,0.54 0.1,0.76 0.16,0.22 0.41,0.35 0.68,0.35l0.76 0c-0.47,0.53 -0.76,1.23 -0.76,1.99 0,1.64 1.34,2.98 2.98,2.98 1.64,0 2.98,-1.34 2.98,-2.98 0,-0.76 -0.29,-1.46 -0.77,-1.99l6.51 0c-0.48,0.53 -0.77,1.23 -0.77,1.99 0,1.64 1.34,2.98 2.98,2.98 1.65,0 2.98,-1.34 2.98,-2.98 0,-0.76 -0.29,-1.46 -0.76,-1.99l0.93 0c0.46,0 0.83,-0.37 0.83,-0.83 0,-0.45 -0.37,-0.82 -0.83,-0.82l-15.88 0 0.92 -2.57c0.12,0.05 0.25,0.08 0.38,0.08l14.58 0c0.43,0 0.81,-0.28 0.94,-0.69l4.14 -12.92c0.1,-0.3 0.05,-0.63 -0.14,-0.89zm-19.02 21.95c-0.73,0 -1.33,-0.59 -1.33,-1.32 0,-0.73 0.6,-1.33 1.33,-1.33 0.73,0 1.33,0.6 1.33,1.33 0,0.73 -0.6,1.32 -1.33,1.32zm10.93 0c-0.73,0 -1.32,-0.59 -1.32,-1.32 0,-0.73 0.59,-1.33 1.32,-1.33 0.73,0 1.33,0.6 1.33,1.33 0,0.73 -0.6,1.32 -1.33,1.32zm5.21 -18.13l-5.07 0 0 -2.24 5.79 0 -0.72 2.24zm-1.46 4.55l-3.61 0 0 -2.57 4.43 0 -0.82 2.57zm-10.18 0l0 -2.57 4.58 0 0 2.57 -4.58 0zm4.58 1.99l0 2.15 -4.58 0 0 -2.15 4.58 0zm-11.2 -4.56l4.63 0 0 2.57 -3.74 0 -0.89 -2.57zm6.62 -1.98l0 -2.24 4.58 0 0 2.24 -4.58 0zm-1.99 -2.24l0 2.24 -5.32 0 -0.77 -2.24 6.09 0zm-3.05 8.78l3.05 0 0 2.15 -2.3 0 -0.75 -2.15zm11.61 2.15l0 -2.15 2.97 0 -0.69 2.15 -2.28 0z"/>
 </g>
</svg>
