<?xml version="1.0" encoding="UTF-8"?>
<!DOCTYPE svg PUBLIC "-//W3C//DTD SVG 1.1//EN" "http://www.w3.org/Graphics/SVG/1.1/DTD/svg11.dtd">
<!-- Creator: CorelDRAW 2018 (64-Bit) -->
<svg xmlns="http://www.w3.org/2000/svg" xml:space="preserve" width="97px" height="97px" version="1.1" style="shape-rendering:geometricPrecision; text-rendering:geometricPrecision; image-rendering:optimizeQuality; fill-rule:evenodd; clip-rule:evenodd"
viewBox="0 0 1.21 1.21"
 xmlns:xlink="http://www.w3.org/1999/xlink">
 <defs>
  <style type="text/css">
   <![CDATA[
    .fil0 {fill:#009933;fill-rule:nonzero}
   ]]>
  </style>
 </defs>
 <g id="Слой_x0020_1">
  <metadata id="CorelCorpID_0Corel-Layer"/>
  <g id="_1148864448">
   <path class="fil0" d="M0.6 0c-0.33,0 -0.6,0.27 -0.6,0.6 0,0.34 0.27,0.61 0.6,0.61 0.34,0 0.61,-0.27 0.61,-0.61 0,-0.33 -0.27,-0.6 -0.61,-0.6zm0 1.13c-0.29,0 -0.52,-0.24 -0.52,-0.53 0,-0.29 0.23,-0.52 0.52,-0.52 0.29,0 0.53,0.23 0.53,0.52 0,0.29 -0.24,0.53 -0.53,0.53z"/>
   <path class="fil0" d="M0.88 0.39l-0.39 0.39 -0.16 -0.16c-0.02,-0.02 -0.04,-0.02 -0.05,0 -0.02,0.01 -0.02,0.04 0,0.05l0.18 0.19c0.02,0.01 0.04,0.01 0.06,0l0.41 -0.41c0.02,-0.02 0.02,-0.04 0,-0.06 -0.01,-0.01 -0.04,-0.01 -0.05,0z"/>
  </g>
 </g>
</svg>
