<?xml version="1.0" encoding="UTF-8"?>
<!DOCTYPE svg PUBLIC "-//W3C//DTD SVG 1.1//EN" "http://www.w3.org/Graphics/SVG/1.1/DTD/svg11.dtd">
<!-- Creator: CorelDRAW 2018 (64-Bit) -->
<svg xmlns="http://www.w3.org/2000/svg" xml:space="preserve" width="1004px" height="645px" version="1.1" style="shape-rendering:geometricPrecision; text-rendering:geometricPrecision; image-rendering:optimizeQuality; fill-rule:evenodd; clip-rule:evenodd"
viewBox="0 0 311.9 200.42"
 xmlns:xlink="http://www.w3.org/1999/xlink">
 <defs>
  <style type="text/css">
   <![CDATA[
    .fil1 {fill:#FF9900}
    .fil0 {fill:#333333;fill-rule:nonzero}
   ]]>
  </style>
 </defs>
 <g id="Слой_x0020_1">
  <metadata id="CorelCorpID_0Corel-Layer"/>
  <g id="_1078419552">
   <path class="fil0" d="M308.22 84.81l-32.06 -6.51 -32.61 -55.41c-0.83,-1.4 -2.33,-2.26 -3.96,-2.26l-15.65 0 0 -16.04c0,-2.53 -2.06,-4.59 -4.6,-4.59l-16 0c-2.53,0 -4.59,2.06 -4.59,4.59l0 16.04 -12.01 0 0 -16.04c0.01,-2.53 -2.05,-4.59 -4.59,-4.59l-177.56 0c-2.54,0 -4.59,2.06 -4.59,4.59l0 171.86c0,2.54 2.06,4.59 4.59,4.59l27.56 0c7.22,12.03 20.21,19.38 34.23,19.38 14.02,0 27.02,-7.35 34.23,-19.38l110.68 0c7.22,12.03 20.21,19.38 34.23,19.38 14.02,0 27.02,-7.35 34.23,-19.38l27.56 0c2.54,0 4.59,-2.05 4.59,-4.59l0 -87.14c0,-2.19 -1.53,-4.07 -3.68,-4.5zm-5.5 33.69l-12.62 0 0 -8.5 12.62 0 0 8.5zm-37.52 -40.69l-57.27 0 0 -28.45 40.54 0 16.73 28.45zm-57.27 -68.64l6.82 0 0 11.45 -6.82 0 0 -11.45zm29.04 20.63l6.1 10.37 -39.73 0c-2.53,0 -4.59,2.05 -4.59,4.59l0 37.64c0,2.53 2.06,4.59 4.59,4.59l69.44 0 29.94 6.07 0 7.75 -17.22 0c-2.53,0 -4.59,2.06 -4.59,4.59l0 17.69c0,2.53 2.06,4.59 4.59,4.59l17.22 0 0 12.19 -22.88 0c-7.2,-12.1 -20.24,-19.52 -34.32,-19.52 -14.08,0 -27.12,7.42 -34.31,19.52l-24.47 0 0 -110.06 50.23 -0.01zm-59.41 -20.63l0 130.7 -76.87 0c-7.2,-12.1 -20.24,-19.52 -34.31,-19.52 -14.09,0 -27.13,7.42 -34.32,19.52l-22.88 0 0 -130.7 168.38 0zm-168.38 162.69l0 -22.8 18.83 0c-2.23,7.44 -2.21,15.37 0.03,22.8l-18.86 0zm57.2 19.38c-12.48,0 -23.73,-7.52 -28.51,-19.05 -4.77,-11.53 -2.13,-24.8 6.69,-33.62 8.82,-8.83 22.1,-11.46 33.62,-6.69 11.53,4.78 19.05,16.03 19.05,28.51 -0.01,17.03 -13.81,30.84 -30.85,30.86l0 -0.01zm38.34 -19.38c2.25,-7.43 2.26,-15.36 0.04,-22.8l102.39 0c-2.23,7.44 -2.21,15.37 0.03,22.8l-102.46 0zm140.8 19.39c-12.48,0 -23.73,-7.51 -28.5,-19.04 -4.78,-11.53 -2.14,-24.8 6.68,-33.63 8.82,-8.82 22.09,-11.46 33.62,-6.69 11.53,4.77 19.05,16.02 19.05,28.5 -0.01,17.03 -13.81,30.84 -30.85,30.86zm57.2 -19.38l-18.86 0c2.24,-7.43 2.26,-15.36 0.03,-22.81l18.83 0 0 22.81z"/>
   <path class="fil0" d="M66.38 142.6c-7.19,0.01 -13.67,4.34 -16.43,10.98 -2.75,6.65 -1.23,14.29 3.86,19.38 5.08,5.08 12.73,6.61 19.38,3.85 6.64,-2.75 10.98,-9.23 10.98,-16.42 -0.01,-9.82 -7.97,-17.78 -17.79,-17.79zm0 26.38c-3.48,0 -6.61,-2.09 -7.94,-5.3 -1.33,-3.22 -0.6,-6.92 1.86,-9.38 2.46,-2.46 6.16,-3.19 9.38,-1.86 3.21,1.33 5.3,4.47 5.3,7.95 0,4.74 -3.85,8.59 -8.6,8.59z"/>
   <path class="fil0" d="M245.52 142.6c-7.19,0 -13.67,4.33 -16.43,10.98 -2.75,6.64 -1.23,14.29 3.85,19.38 5.09,5.08 12.74,6.61 19.38,3.85 6.65,-2.75 10.98,-9.23 10.98,-16.42 -0.01,-9.82 -7.96,-17.77 -17.78,-17.79zm0 26.38c-3.48,0.01 -6.61,-2.09 -7.94,-5.3 -1.34,-3.22 -0.6,-6.91 1.86,-9.37 2.46,-2.46 6.16,-3.2 9.37,-1.87 3.22,1.33 5.31,4.47 5.31,7.95 -0.01,4.74 -3.85,8.59 -8.6,8.59z"/>
   <path class="fil0" d="M203.34 104.8l10.51 0c6.12,0 6.12,-9.18 0,-9.18l-10.51 0c-6.12,0 -6.12,9.18 0,9.18z"/>
   <path class="fil1" d="M177.56 9.17l0 130.7 -76.87 0c-7.2,-12.1 -20.24,-19.52 -34.31,-19.52 -14.09,0 -27.13,7.42 -34.32,19.52l-22.88 0 0 -130.7 168.38 0z"/>
   <circle class="fil1" cx="245.52" cy="160.39" r="8.6"/>
   <circle class="fil1" cx="66.38" cy="160.39" r="8.6"/>
  </g>
 </g>
</svg>
