<svg width="38" height="35" viewBox="0 0 38 35" fill="none" xmlns="http://www.w3.org/2000/svg">
<g filter="url(#filter0_d)">
<g clip-path="url(#clip0)">
<path d="M33.3198 5.53098H21.3986C21.1122 4.2064 19.895 3.16821 18.4988 3.16821C17.0668 3.16821 15.8854 4.1706 15.599 5.53098H4.64439C4.2864 5.53098 4 5.81738 4 6.17537C4 6.53337 4.2864 6.81976 4.64439 6.81976H15.5632C15.8496 8.14435 17.0668 9.18253 18.463 9.18253C19.895 9.18253 21.0764 8.18015 21.3628 6.81976H33.3198C33.6778 6.81976 33.9642 6.53337 33.9642 6.17537C33.9642 5.81738 33.6778 5.53098 33.3198 5.53098ZM18.4988 7.92955C17.568 7.92955 16.7804 7.17776 16.7804 6.21117C16.7804 5.24459 17.5322 4.4928 18.4988 4.4928C19.4296 4.4928 20.2172 5.24459 20.2172 6.21117C20.2172 7.14196 19.4654 7.92955 18.4988 7.92955Z" fill="#272727"/>
<path d="M33.3556 14.3735H15.2768C14.9905 13.0489 13.7733 12.0107 12.3771 12.0107C10.9451 12.0107 9.76372 13.0131 9.47733 14.3735H4.64439C4.2864 14.3735 4 14.6599 4 15.0179C4 15.3759 4.2864 15.6623 4.64439 15.6623H9.47733C9.76372 16.9869 10.9809 18.0251 12.3771 18.0251C13.8091 18.0251 14.9905 17.0227 15.2768 15.6623H33.3556C33.7136 15.6623 34 15.3759 34 15.0179C34 14.6599 33.7136 14.3735 33.3556 14.3735ZM12.3771 16.7363C11.4463 16.7363 10.6587 15.9845 10.6587 15.0179C10.6587 14.0871 11.4463 13.2995 12.3771 13.2995C13.3079 13.2995 14.0955 14.0513 14.0955 15.0179C14.0955 15.9487 13.3437 16.7363 12.3771 16.7363Z" fill="#272727"/>
<path d="M33.3198 23.1803H27.6993C27.4129 21.8557 26.1957 20.8175 24.7995 20.8175C23.3675 20.8175 22.1862 21.8199 21.8998 23.1803H4.64439C4.2864 23.1803 4 23.4667 4 23.8247C4 24.1827 4.2864 24.4691 4.64439 24.4691H21.864C22.1504 25.7936 23.3675 26.8318 24.7637 26.8318C26.1957 26.8318 27.3771 25.8294 27.6635 24.4691H33.3198C33.6778 24.4691 33.9642 24.1827 33.9642 23.8247C33.9642 23.4667 33.6778 23.1803 33.3198 23.1803ZM24.7637 25.5788C23.8329 25.5788 23.0453 24.8271 23.0453 23.8605C23.0453 22.8939 23.8329 22.1421 24.7637 22.1421C25.6945 22.1421 26.4821 22.8939 26.4821 23.8605C26.4821 24.8271 25.7303 25.5788 24.7637 25.5788Z" fill="#272727"/>
</g>
</g>
<defs>
<filter id="filter0_d" x="0" y="0" width="38" height="38" filterUnits="userSpaceOnUse" color-interpolation-filters="sRGB">
<feFlood flood-opacity="0" result="BackgroundImageFix"/>
<feColorMatrix in="SourceAlpha" type="matrix" values="0 0 0 0 0 0 0 0 0 0 0 0 0 0 0 0 0 0 127 0"/>
<feOffset dy="4"/>
<feGaussianBlur stdDeviation="2"/>
<feColorMatrix type="matrix" values="0 0 0 0 0 0 0 0 0 0 0 0 0 0 0 0 0 0 0.25 0"/>
<feBlend mode="normal" in2="BackgroundImageFix" result="effect1_dropShadow"/>
<feBlend mode="normal" in="SourceGraphic" in2="effect1_dropShadow" result="shape"/>
</filter>
<clipPath id="clip0">
<rect x="4" width="30" height="30" fill="white"/>
</clipPath>
</defs>
</svg>
