<?xml version="1.0" encoding="UTF-8"?>
<!DOCTYPE svg PUBLIC "-//W3C//DTD SVG 1.1//EN" "http://www.w3.org/Graphics/SVG/1.1/DTD/svg11.dtd">
<!-- Creator: CorelDRAW 2018 (64-Bit) -->
<svg xmlns="http://www.w3.org/2000/svg" xml:space="preserve" width="996px" height="996px" version="1.1" style="shape-rendering:geometricPrecision; text-rendering:geometricPrecision; image-rendering:optimizeQuality; fill-rule:evenodd; clip-rule:evenodd"
viewBox="0 0 318 318"
 xmlns:xlink="http://www.w3.org/1999/xlink">
 <defs>
  <style type="text/css">
   <![CDATA[
    .fil3 {fill:#333333}
    .fil0 {fill:#FF9900}
    .fil1 {fill:#333333;fill-rule:nonzero}
    .fil2 {fill:#333333;fill-rule:nonzero}
   ]]>
  </style>
 </defs>
 <g id="Слой_x0020_1">
  <metadata id="CorelCorpID_0Corel-Layer"/>
  <path class="fil0" d="M299.14 160.76l8.21 21.74 -14.53 18.13c-0.75,0.95 -1.14,2.14 -1.08,3.35l1.09 23.21 -19.42 12.76c-1.01,0.66 -1.75,1.68 -2.07,2.85l-6.13 22.41 -22.42 6.13c-1.16,0.32 -2.18,1.06 -2.84,2.07l-12.76 19.42 -23.21 -1.09c-1.21,-0.06 -2.4,0.33 -3.35,1.08l-18.14 14.53 -21.73 -8.21c-0.57,-0.22 -1.17,-0.32 -1.76,-0.32 -0.6,0 -1.2,0.11 -1.76,0.32l-21.74 8.21 -18.13 -14.53c-0.95,-0.75 -2.14,-1.14 -3.35,-1.08l-23.21 1.09 -12.76 -19.42c-0.67,-1.01 -1.68,-1.75 -2.85,-2.07l-22.41 -6.13 -6.13 -22.41c-0.33,-1.17 -1.06,-2.19 -2.07,-2.85l-19.43 -12.76 1.1 -23.21c0.06,-1.21 -0.33,-2.4 -1.09,-3.35l-14.53 -18.13 8.22 -21.74c0.42,-1.14 0.42,-2.39 0,-3.52l-8.22 -21.74 14.53 -18.13c0.76,-0.95 1.15,-2.14 1.09,-3.35l-1.1 -23.21 19.43 -12.76c1.01,-0.67 1.74,-1.68 2.07,-2.85l6.13 -22.41 22.41 -6.13c1.17,-0.32 2.18,-1.06 2.85,-2.07l12.76 -19.43 23.21 1.1c1.21,0.06 2.4,-0.33 3.35,-1.09l18.13 -14.53 21.74 8.22c1.13,0.42 2.38,0.42 3.52,0l21.74 -8.22 18.13 14.53c0.95,0.76 2.14,1.15 3.35,1.09l23.21 -1.1 12.76 19.43c0.66,1.01 1.68,1.75 2.85,2.07l22.41 6.13 6.13 22.41c0.32,1.17 1.06,2.18 2.07,2.85l19.42 12.76 -1.09 23.21c-0.06,1.21 0.33,2.4 1.09,3.35l14.52 18.13 -8.21 21.74c-0.43,1.13 -0.43,2.38 0,3.52zm-140.14 -119.75c65.16,0 117.98,52.83 117.98,117.99 0,65.16 -52.82,117.98 -117.98,117.98 -65.16,0 -117.99,-52.82 -117.99,-117.98 0,-65.16 52.83,-117.99 117.99,-117.99z"/>
  <rect class="fil0" x="102.19" y="146.23" width="29" height="63.28"/>
  <path class="fil1" d="M102.18 146.23l27.34 0 0 58.28c0,2.62 -2.13,4.75 -4.74,4.75l-4.75 0 0 -13.67c0,-2.31 -1.87,-4.18 -4.18,-4.18 -2.31,0 -4.18,1.87 -4.18,4.18l0 13.67 -9.49 0 0 -63.03zm35.76 7.29c0.43,-0.21 0.88,-0.43 1.34,-0.64 7.27,-3.51 17.23,-8.31 25.79,-15.59 10.49,-8.9 16.3,-19.48 17.29,-31.43 0.02,-0.14 0.29,-0.4 0.51,-0.4 0,0 0.01,0 0.01,0 5.05,0.07 9.16,4.25 9.16,9.31l0 1.4c0,8.7 -2.27,14.2 -7.01,21.64l-6.65 0c-2.31,0 -4.19,1.87 -4.19,4.18 0,2.31 1.88,4.18 4.19,4.18l8.95 0c0.01,0 0.01,0 0.01,0l31.2 0c2.61,0 4.74,2.13 4.74,4.74 0,2.62 -2.13,4.74 -4.74,4.74l-8.93 0c-2.31,0 -4.18,1.88 -4.18,4.19 0,2.31 1.87,4.18 4.18,4.18l8.77 0c2.61,0 4.74,2.13 4.74,4.74 0,2.62 -2.13,4.74 -4.74,4.74l-8.77 0c-2.31,0 -4.18,1.88 -4.18,4.19 0,2.31 1.87,4.18 4.18,4.18l4.31 0c2.61,0 4.74,2.13 4.74,4.74 0,2.62 -2.13,4.74 -4.74,4.74l-4.47 0c-2.31,0 -4.18,1.87 -4.18,4.19 0,2.31 1.87,4.18 4.18,4.18 2.62,0 4.74,2.13 4.74,4.74 0,2.61 -2.12,4.74 -4.74,4.74l-13.22 0c-3.24,0 -6.32,0.03 -9.29,0.06 -18.65,0.17 -32.35,0.3 -49,-7.43l0 -48.31 0 0zm-39.94 64.1l26.78 0c5.12,0 9.57,-2.96 11.72,-7.26 14.9,6.47 27.85,7.31 42.71,7.31 2.54,0 5.14,-0.02 7.81,-0.05 2.95,-0.02 6,-0.05 9.21,-0.05l13.22 0c7.23,0 13.11,-5.88 13.11,-13.11 0,-2.43 -0.66,-4.71 -1.82,-6.66 3.76,-2.31 6.28,-6.46 6.28,-11.19 0,-2.43 -0.66,-4.71 -1.82,-6.66 3.77,-2.31 6.28,-6.46 6.28,-11.19 0,-3.4 -1.3,-6.51 -3.43,-8.84 2.22,-2.35 3.59,-5.52 3.59,-9.01 0,-7.22 -5.88,-13.1 -13.1,-13.1l-23.77 0c3.68,-6.67 5.64,-12.96 5.64,-21.64l0 -1.4c0,-0.01 0,-0.01 0,-0.01 0,-4.67 -1.81,-9.07 -5.09,-12.4 -3.27,-3.33 -7.65,-5.2 -12.31,-5.27 -0.05,0 -0.09,0 -0.14,0 -4.52,0 -8.47,3.6 -8.84,8.08 -1.78,21.37 -22.37,32.39 -36.15,39.08l0 -2.21c0,-2.31 -1.87,-4.18 -4.18,-4.18l-35.7 0c-2.31,0 -4.18,1.87 -4.18,4.18l0 71.4c0,2.31 1.87,4.18 4.18,4.18z"/>
  <path class="fil2" d="M214.02 114.43l8.92 0c2.31,0 4.19,-1.87 4.19,-4.18 0,-2.31 -1.88,-4.18 -4.19,-4.18l-8.92 0c-2.31,0 -4.18,1.87 -4.18,4.18 0,2.31 1.87,4.18 4.18,4.18z"/>
  <path class="fil2" d="M151.55 114.43l8.92 0c2.31,0 4.19,-1.87 4.19,-4.18 0,-2.31 -1.88,-4.18 -4.19,-4.18l-8.92 0c-2.31,0 -4.18,1.87 -4.18,4.18 0,2.31 1.87,4.18 4.18,4.18z"/>
  <path class="fil2" d="M170.24 89.15c0.77,1.35 2.18,2.1 3.62,2.1 0.71,0 1.43,-0.18 2.09,-0.56 2,-1.16 2.69,-3.72 1.53,-5.72l-4.46 -7.73c-1.15,-2 -3.71,-2.68 -5.71,-1.53 -2,1.16 -2.69,3.72 -1.54,5.72l4.47 7.72z"/>
  <path class="fil2" d="M198.54 90.69c0.66,0.38 1.38,0.56 2.09,0.56 1.45,0 2.85,-0.75 3.63,-2.1l4.46 -7.72c1.15,-2 0.47,-4.56 -1.53,-5.72 -2,-1.15 -4.56,-0.47 -5.72,1.53l-4.46 7.73c-1.15,2 -0.47,4.56 1.53,5.72z"/>
  <path class="fil1" d="M299.14 160.76l8.22 21.74 -14.53 18.13c-0.76,0.95 -1.15,2.14 -1.09,3.35l1.09 23.21 -19.42 12.76c-1.01,0.66 -1.75,1.68 -2.07,2.85l-6.13 22.41 -22.41 6.13c-1.17,0.32 -2.19,1.06 -2.85,2.07l-12.76 19.42 -23.21 -1.09c-1.21,-0.06 -2.4,0.33 -3.35,1.09l-18.13 14.52 -21.74 -8.21c-0.57,-0.21 -1.17,-0.32 -1.76,-0.32 -0.6,0 -1.19,0.11 -1.76,0.32l-21.74 8.21 -18.13 -14.52c-0.95,-0.76 -2.14,-1.15 -3.35,-1.09l-23.21 1.09 -12.76 -19.42c-0.67,-1.01 -1.68,-1.75 -2.85,-2.07l-22.41 -6.13 -6.13 -22.41c-0.32,-1.17 -1.06,-2.19 -2.07,-2.85l-19.43 -12.76 1.1 -23.21c0.06,-1.21 -0.33,-2.4 -1.09,-3.35l-14.53 -18.13 8.22 -21.74c0.43,-1.14 0.43,-2.39 0,-3.52l-8.22 -21.74 14.53 -18.13c0.76,-0.95 1.15,-2.14 1.09,-3.35l-1.1 -23.21 19.43 -12.76c1.01,-0.67 1.75,-1.68 2.07,-2.85l6.13 -22.41 22.41 -6.13c1.17,-0.32 2.18,-1.06 2.85,-2.07l12.76 -19.43 23.21 1.1c1.21,0.06 2.4,-0.33 3.35,-1.09l18.13 -14.53 21.74 8.22c1.13,0.42 2.38,0.42 3.52,0l21.74 -8.22 18.13 14.53c0.95,0.76 2.14,1.15 3.35,1.09l23.21 -1.1 12.76 19.43c0.66,1.01 1.68,1.75 2.85,2.07l22.41 6.13 6.13 22.41c0.32,1.17 1.06,2.18 2.07,2.85l19.42 12.76 -1.09 23.21c-0.06,1.21 0.33,2.4 1.09,3.35l14.53 18.13 -8.22 21.74c-0.43,1.13 -0.43,2.38 0,3.52zm9.98 -1.76l8.55 -22.64c0.63,-1.64 0.33,-3.5 -0.77,-4.87l-15.13 -18.88 1.14 -24.17c0.09,-1.76 -0.77,-3.43 -2.24,-4.4l-20.22 -13.28 -6.38 -23.34c-0.47,-1.7 -1.8,-3.03 -3.49,-3.49l-23.34 -6.38 -13.29 -20.23c-0.96,-1.47 -2.63,-2.32 -4.39,-2.24l-24.17 1.14 -18.88 -15.13c-1.38,-1.1 -3.23,-1.39 -4.88,-0.77l-22.63 8.55 -22.64 -8.55c-1.64,-0.62 -3.5,-0.33 -4.87,0.77l-18.88 15.13 -24.17 -1.14c-1.77,-0.08 -3.43,0.77 -4.4,2.24l-13.28 20.23 -23.34 6.38c-1.7,0.46 -3.03,1.79 -3.49,3.49l-6.38 23.34 -20.23 13.28c-1.47,0.97 -2.32,2.64 -2.24,4.4l1.14 24.17 -15.13 18.88c-1.1,1.37 -1.39,3.23 -0.77,4.87l8.56 22.64 -8.56 22.63c-0.62,1.65 -0.33,3.5 0.77,4.88l15.13 18.88 -1.14 24.17c-0.08,1.76 0.77,3.43 2.24,4.39l20.23 13.29 6.38 23.34c0.46,1.7 1.79,3.02 3.49,3.49l23.34 6.38 13.28 20.22c0.97,1.47 2.64,2.32 4.4,2.24l24.17 -1.14 18.88 15.13c1.37,1.1 3.23,1.4 4.87,0.77l22.64 -8.55 22.63 8.55c0.57,0.22 1.17,0.33 1.76,0.33 1.12,0 2.22,-0.38 3.12,-1.1l18.88 -15.13 24.17 1.14c1.76,0.08 3.43,-0.77 4.39,-2.24l13.29 -20.22 23.34 -6.38c1.7,-0.47 3.02,-1.79 3.49,-3.49l6.38 -23.34 20.22 -13.29c1.47,-0.96 2.33,-2.63 2.24,-4.39l-1.14 -24.17 15.13 -18.88c1.1,-1.38 1.4,-3.23 0.77,-4.88l-8.55 -22.63z"/>
  <path class="fil3" d="M159 41.01c65.16,0 117.98,52.83 117.98,117.99 0,65.16 -52.82,117.98 -117.98,117.98 -65.16,0 -117.99,-52.82 -117.99,-117.98 0,-65.16 52.83,-117.99 117.99,-117.99zm0 8.93c60.23,0 109.06,48.83 109.06,109.06 0,60.23 -48.83,109.06 -109.06,109.06 -60.23,0 -109.06,-48.83 -109.06,-109.06 0,-60.23 48.83,-109.06 109.06,-109.06z"/>
 </g>
</svg>
