<?xml version="1.0" encoding="UTF-8"?>
<!DOCTYPE svg PUBLIC "-//W3C//DTD SVG 1.1//EN" "http://www.w3.org/Graphics/SVG/1.1/DTD/svg11.dtd">
<!-- Creator: CorelDRAW 2018 (64-Bit) -->
<svg xmlns="http://www.w3.org/2000/svg" xml:space="preserve" width="189px" height="189px" version="1.1" style="shape-rendering:geometricPrecision; text-rendering:geometricPrecision; image-rendering:optimizeQuality; fill-rule:evenodd; clip-rule:evenodd"
viewBox="0 0 1.56 1.56"
 xmlns:xlink="http://www.w3.org/1999/xlink">
 <defs>
  <style type="text/css">
   <![CDATA[
    .fil0 {fill:white;fill-rule:nonzero}
   ]]>
  </style>
 </defs>
 <g id="Слой_x0020_1">
  <metadata id="CorelCorpID_0Corel-Layer"/>
  <g id="_1270158576">
   <path class="fil0" d="M1.14 0l-0.72 0c-0.23,0 -0.42,0.19 -0.42,0.42l0 0.72c0,0.23 0.19,0.42 0.42,0.42l0.72 0c0.23,0 0.42,-0.19 0.42,-0.42l0 -0.72c0,-0.23 -0.19,-0.42 -0.42,-0.42zm-0.36 1.21c-0.23,0 -0.43,-0.19 -0.43,-0.43 0,-0.23 0.2,-0.43 0.43,-0.43 0.24,0 0.43,0.2 0.43,0.43 0,0.24 -0.19,0.43 -0.43,0.43zm0.44 -0.75c-0.07,0 -0.13,-0.06 -0.13,-0.13 0,-0.07 0.06,-0.13 0.13,-0.13 0.07,0 0.13,0.06 0.13,0.13 0,0.07 -0.06,0.13 -0.13,0.13z"/>
   <path class="fil0" d="M0.78 0.45c-0.18,0 -0.33,0.15 -0.33,0.33 0,0.19 0.15,0.34 0.33,0.34 0.19,0 0.34,-0.15 0.34,-0.34 0,-0.18 -0.15,-0.33 -0.34,-0.33z"/>
   <path class="fil0" d="M1.22 0.29c-0.02,0 -0.03,0.02 -0.03,0.04 0,0.02 0.01,0.03 0.03,0.03 0.02,0 0.03,-0.01 0.03,-0.03 0,-0.02 -0.01,-0.04 -0.03,-0.04z"/>
  </g>
 </g>
</svg>
