<?xml version="1.0" encoding="UTF-8"?>
<!DOCTYPE svg PUBLIC "-//W3C//DTD SVG 1.1//EN" "http://www.w3.org/Graphics/SVG/1.1/DTD/svg11.dtd">
<!-- Creator: CorelDRAW 2018 (64-Bit) -->
<svg xmlns="http://www.w3.org/2000/svg" xml:space="preserve" width="500px" height="295px" version="1.1" style="shape-rendering:geometricPrecision; text-rendering:geometricPrecision; image-rendering:optimizeQuality; fill-rule:evenodd; clip-rule:evenodd"
viewBox="0 0 14.68 8.66"
 xmlns:xlink="http://www.w3.org/1999/xlink">
 <defs>
  <style type="text/css">
   <![CDATA[
    .fil0 {fill:#1A1A1A;fill-rule:nonzero}
   ]]>
  </style>
 </defs>
 <g id="Слой_x0020_1">
  <metadata id="CorelCorpID_0Corel-Layer"/>
  <path class="fil0" d="M0.82 8.66l0.44 0 0 -2.44c-0.16,-0.06 -0.3,-0.07 -0.44,-0.08l0 2.52zm12.77 -0.01l0 -1.44 0.62 0c0.06,0 0.13,0.01 0.19,0.04 0.05,0.03 0.1,0.06 0.15,0.11 0.04,0.05 0.07,0.1 0.09,0.16 0.03,0.06 0.04,0.11 0.04,0.17 0,0.07 -0.01,0.13 -0.03,0.19 -0.03,0.06 -0.06,0.11 -0.1,0.15 -0.04,0.05 -0.09,0.09 -0.14,0.11 -0.06,0.03 -0.13,0.05 -0.19,0.05l-0.3 0 0 0.46 -0.33 0zm0.33 -0.76l0.27 0c0.04,0 0.08,-0.01 0.11,-0.05 0.03,-0.03 0.04,-0.08 0.04,-0.15 0,-0.03 0,-0.06 -0.01,-0.08 -0.01,-0.03 -0.02,-0.05 -0.04,-0.06 -0.01,-0.02 -0.03,-0.03 -0.05,-0.04 -0.02,-0.01 -0.04,-0.01 -0.06,-0.01l-0.26 0 0 0.39zm-0.54 0.47l0 0.29 -1.02 0 0 -1.44 1 0 0 0.29 -0.67 0 0 0.28 0.57 0 0 0.27 -0.57 0 0 0.31 0.69 0zm-1.19 -0.86l-0.45 0 0 1.15 -0.33 0 0 -1.15 -0.44 0 0 -0.29 1.22 0 0 0.29zm-2.59 0.42c0,-0.09 0.02,-0.18 0.05,-0.26 0.04,-0.09 0.08,-0.17 0.15,-0.23 0.06,-0.07 0.13,-0.13 0.22,-0.17 0.09,-0.04 0.2,-0.06 0.31,-0.06 0.14,0 0.26,0.03 0.36,0.08 0.1,0.06 0.17,0.14 0.22,0.23l-0.26 0.18c-0.01,-0.04 -0.03,-0.07 -0.06,-0.09 -0.03,-0.03 -0.05,-0.05 -0.08,-0.06 -0.03,-0.02 -0.06,-0.03 -0.09,-0.04 -0.04,0 -0.07,-0.01 -0.1,-0.01 -0.06,0 -0.12,0.02 -0.16,0.04 -0.05,0.03 -0.09,0.06 -0.12,0.1 -0.03,0.04 -0.06,0.09 -0.07,0.14 -0.02,0.05 -0.02,0.11 -0.02,0.16 0,0.06 0,0.11 0.02,0.16 0.02,0.06 0.04,0.1 0.08,0.14 0.03,0.04 0.07,0.08 0.12,0.1 0.05,0.02 0.1,0.04 0.16,0.04 0.03,0 0.06,-0.01 0.09,-0.01 0.03,-0.01 0.06,-0.02 0.09,-0.04 0.03,-0.01 0.06,-0.04 0.08,-0.06 0.03,-0.03 0.05,-0.06 0.06,-0.09l0.28 0.16c-0.03,0.05 -0.06,0.1 -0.1,0.14 -0.04,0.04 -0.09,0.08 -0.15,0.11 -0.05,0.02 -0.11,0.05 -0.18,0.06 -0.06,0.02 -0.12,0.02 -0.18,0.02 -0.11,0 -0.2,-0.02 -0.29,-0.06 -0.09,-0.04 -0.16,-0.1 -0.23,-0.17 -0.06,-0.07 -0.11,-0.15 -0.14,-0.24 -0.04,-0.09 -0.06,-0.18 -0.06,-0.27zm-0.83 -0.71l0.3 0 0.53 1.44 -0.35 0 -0.11 -0.32 -0.45 0 -0.11 0.32 -0.34 0 0.53 -1.44zm0.32 0.89l-0.17 -0.51 -0.18 0.51 0.35 0zm-1.34 0.55l0 -0.86 -0.32 0.63 -0.17 0 -0.32 -0.63 0 0.86 -0.33 0 0 -1.44 0.36 0 0.38 0.75 0.37 -0.75 0.37 0 0 1.44 -0.34 0zm-6.01 -2.13l0 2.14 0.45 0 0 -1.45c-0.08,-0.22 -0.19,-0.41 -0.34,-0.58 -0.03,-0.04 -0.07,-0.07 -0.11,-0.11zm0.98 -2.76c0.31,0 0.58,-0.12 0.78,-0.32 0.2,-0.2 0.32,-0.48 0.32,-0.78 0,-0.3 -0.12,-0.58 -0.32,-0.78l0 0c-0.2,-0.2 -0.48,-0.32 -0.78,-0.32 -0.3,0 -0.58,0.12 -0.78,0.32l0 0 0 0c-0.2,0.2 -0.32,0.48 -0.32,0.78 0,0.3 0.12,0.58 0.32,0.78l0 0c0.2,0.2 0.48,0.32 0.78,0.32zm1.88 -2.98c-0.48,-0.48 -1.14,-0.78 -1.88,-0.78 -0.01,0 -0.02,0 -0.03,0l-2.41 0 0 0 -0.28 0 0 5.23 0.45 0 0 -4.79 0.8 0 0 0.01 1.35 0c0.03,-0.01 0.06,-0.01 0.09,-0.01l0.06 0 0 0c0.6,0.01 1.14,0.26 1.54,0.65 0.4,0.4 0.65,0.96 0.65,1.57 0,0.61 -0.25,1.16 -0.65,1.57 -0.4,0.4 -0.96,0.65 -1.57,0.65 -0.18,0 -0.36,-0.03 -0.53,-0.07l0 -0.32c0.17,0.05 0.35,0.08 0.53,0.08 0.53,0 1,-0.22 1.35,-0.56l0 0 0 0c0.34,-0.35 0.56,-0.83 0.56,-1.35 0,-0.53 -0.22,-1 -0.56,-1.35l0 0c-0.35,-0.34 -0.82,-0.56 -1.35,-0.56 -0.52,0 -1,0.22 -1.35,0.56l0 0 0 0c-0.34,0.35 -0.55,0.82 -0.55,1.35l0 0 0 2.57 0.01 0c0.14,0 0.28,0.02 0.41,0.04l0 0 0.02 0 0 -1.39c0.03,0.04 0.07,0.09 0.11,0.13l0 0c0.11,0.11 0.24,0.21 0.37,0.29l0 1.14c0.08,0.05 0.16,0.09 0.23,0.14l0 0c0.08,0.06 0.15,0.11 0.22,0.18l0 -0.5c0.17,0.04 0.35,0.06 0.53,0.06 0.74,0 1.4,-0.3 1.88,-0.78 0.48,-0.48 0.78,-1.15 0.78,-1.88 0,-0.74 -0.3,-1.4 -0.78,-1.88zm-2.97 4.82c-0.08,-0.03 -0.17,-0.06 -0.26,-0.09l0 0c-0.04,-0.01 -0.09,-0.02 -0.13,-0.03l0 0c-0.13,-0.02 -0.27,-0.03 -0.41,-0.03l-0.83 0 0 3.21 0.47 0 0 -2.33 0 -0.28 0 -0.11 0.12 0 0.24 0c0.11,0 0.22,0.01 0.33,0.03 0.1,0.02 0.2,0.05 0.3,0.09 0.1,0.05 0.19,0.1 0.28,0.16l0 0c0.09,0.06 0.17,0.13 0.25,0.22 0.08,0.08 0.14,0.16 0.2,0.25 0.04,0.07 0.08,0.14 0.12,0.21l0 0 0.03 0.08c0.02,0.05 0.04,0.11 0.05,0.16l0 0c0.01,0.03 0.02,0.05 0.02,0.08l0.01 0 0.52 0 0 0c0.01,-0.03 0.02,-0.05 0.02,-0.08l0 0c0.02,-0.05 0.04,-0.11 0.06,-0.16l0.03 -0.08 0 0c0.03,-0.07 0.07,-0.14 0.12,-0.21 0.05,-0.09 0.12,-0.17 0.2,-0.25 0.08,-0.09 0.16,-0.16 0.25,-0.22l0 0c0.08,-0.06 0.18,-0.11 0.28,-0.16 0.09,-0.04 0.2,-0.07 0.3,-0.09 0.11,-0.02 0.22,-0.03 0.33,-0.03l0.24 0 0.12 0 0 0.11 0 0.28 0 2.33 0.47 0 0 -3.21 -0.83 0c-0.14,0 -0.28,0.01 -0.41,0.03l0 0c-0.05,0.01 -0.09,0.02 -0.14,0.03l0 0c-0.08,0.03 -0.17,0.06 -0.25,0.09 -0.12,0.05 -0.24,0.12 -0.35,0.2l0 0c-0.11,0.08 -0.21,0.17 -0.31,0.27l-0.03 0.03 -0.02 0.02 -0.02 0.03 -0.01 0 -0.01 0.02 0 0 -0.22 0.26 -0.08 0.09 -0.08 -0.09 -0.22 -0.26 0 0 -0.02 -0.02 0 0 -0.02 -0.03 -0.02 -0.02 -0.03 -0.03c-0.1,-0.1 -0.21,-0.19 -0.32,-0.27l0 0c-0.11,-0.08 -0.22,-0.15 -0.34,-0.2zm12.68 -0.44c0,0.03 0,0.07 -0.02,0.09 -0.01,0.03 -0.03,0.06 -0.06,0.08 -0.03,0.02 -0.06,0.03 -0.1,0.05 -0.03,0.01 -0.07,0.01 -0.12,0.01 -0.04,0 -0.09,0 -0.12,-0.01 -0.04,-0.02 -0.07,-0.03 -0.1,-0.05 -0.02,-0.02 -0.05,-0.05 -0.06,-0.08 -0.01,-0.02 -0.02,-0.06 -0.02,-0.09l0.15 0c0,0.01 0.01,0.03 0.02,0.04 0,0.01 0.01,0.02 0.03,0.03 0.01,0.01 0.03,0.02 0.04,0.02 0.02,0.01 0.04,0.01 0.06,0.01 0.04,0 0.07,-0.01 0.1,-0.03 0.03,-0.02 0.04,-0.04 0.05,-0.07l0.15 0zm-0.55 1.04l0.52 -0.72 0.19 0 0 1.12 -0.25 0 0 -0.7 -0.52 0.7 -0.2 0 0 -1.12 0.26 0 0 0.72zm-1.21 0l0.53 -0.72 0.19 0 0 1.12 -0.26 0 0 -0.7 -0.52 0.7 -0.2 0 0 -1.12 0.26 0 0 0.72zm-1.05 -0.28l0.06 0 0.32 -0.44 0.29 0 -0.4 0.54 0.44 0.58 -0.29 0 -0.34 -0.44 -0.08 0 0 0.44 -0.26 0 0 -1.12 0.26 0 0 0.44zm-1.41 0.11c0,-0.07 0.01,-0.13 0.04,-0.2 0.02,-0.07 0.06,-0.13 0.11,-0.18 0.04,-0.05 0.1,-0.09 0.17,-0.13 0.07,-0.03 0.15,-0.04 0.24,-0.04 0.1,0 0.19,0.02 0.27,0.06 0.08,0.05 0.14,0.11 0.17,0.18l-0.2 0.14c-0.01,-0.03 -0.02,-0.06 -0.04,-0.08 -0.02,-0.01 -0.04,-0.03 -0.07,-0.04 -0.02,-0.01 -0.04,-0.02 -0.07,-0.03 -0.02,0 -0.05,0 -0.07,0 -0.05,0 -0.09,0.01 -0.13,0.03 -0.03,0.02 -0.06,0.04 -0.09,0.07 -0.02,0.03 -0.04,0.07 -0.05,0.11 -0.01,0.04 -0.02,0.08 -0.02,0.12 0,0.04 0.01,0.09 0.02,0.13 0.01,0.04 0.03,0.07 0.06,0.1 0.03,0.04 0.06,0.06 0.09,0.08 0.04,0.02 0.08,0.03 0.12,0.03 0.03,0 0.05,-0.01 0.08,-0.01 0.02,-0.01 0.04,-0.02 0.07,-0.03 0.02,-0.01 0.04,-0.03 0.06,-0.05 0.02,-0.01 0.03,-0.04 0.04,-0.07l0.22 0.13c-0.02,0.04 -0.05,0.07 -0.08,0.11 -0.03,0.03 -0.07,0.06 -0.11,0.08 -0.05,0.02 -0.09,0.04 -0.14,0.05 -0.05,0.01 -0.1,0.02 -0.14,0.02 -0.08,0 -0.16,-0.02 -0.22,-0.05 -0.07,-0.04 -0.13,-0.08 -0.18,-0.13 -0.05,-0.06 -0.09,-0.12 -0.11,-0.19 -0.03,-0.07 -0.04,-0.14 -0.04,-0.21zm-0.42 0.57l0 -0.67 -0.24 0.48 -0.14 0 -0.24 -0.48 0 0.67 -0.26 0 0 -1.12 0.28 0 0.29 0.58 0.29 -0.58 0.28 0 0 1.12 -0.26 0zm-1.82 -0.4l0.53 -0.72 0.19 0 0 1.12 -0.26 0 0 -0.7 -0.52 0.7 -0.2 0 0 -1.12 0.26 0 0 0.72zm-1.24 0.4l0 -1.12 0.47 0c0.06,0 0.1,0.01 0.15,0.04 0.04,0.02 0.08,0.05 0.11,0.08 0.04,0.04 0.06,0.08 0.08,0.12 0.02,0.05 0.03,0.09 0.03,0.14 0,0.05 -0.01,0.1 -0.03,0.14 -0.02,0.05 -0.04,0.09 -0.07,0.12 -0.03,0.04 -0.07,0.06 -0.11,0.09 -0.05,0.02 -0.1,0.03 -0.15,0.03l-0.23 0 0 0.36 -0.25 0zm0.25 -0.59l0.21 0c0.03,0 0.06,-0.01 0.08,-0.04 0.02,-0.02 0.04,-0.06 0.04,-0.11 0,-0.03 -0.01,-0.05 -0.01,-0.07 -0.01,-0.02 -0.02,-0.03 -0.03,-0.05 -0.01,-0.01 -0.03,-0.02 -0.04,-0.02 -0.02,-0.01 -0.03,-0.01 -0.05,-0.01l-0.2 0 0 0.3zm-5.17 -2.32l0 0 0 0c-0.27,-0.26 -0.43,-0.63 -0.43,-1.03 0,-0.41 0.16,-0.77 0.43,-1.04l0 0c0.26,-0.26 0.63,-0.42 1.03,-0.42 0.41,0 0.77,0.16 1.04,0.42l0 0c0.26,0.27 0.43,0.63 0.43,1.04 0,0.4 -0.17,0.77 -0.43,1.03l0 0c-0.27,0.27 -0.63,0.43 -1.04,0.43 -0.4,0 -0.77,-0.16 -1.03,-0.43zm0.55 -1.52l0 0 0 0c0.12,-0.12 0.29,-0.2 0.48,-0.2 0.19,0 0.36,0.08 0.49,0.2l0 0c0.12,0.13 0.2,0.3 0.2,0.49 0,0.19 -0.08,0.36 -0.2,0.48 -0.13,0.13 -0.3,0.2 -0.49,0.2 -0.19,0 -0.36,-0.07 -0.48,-0.2l0 0c-0.13,-0.12 -0.2,-0.29 -0.2,-0.48 0,-0.19 0.07,-0.36 0.2,-0.49z"/>
 </g>
</svg>
