<?xml version="1.0" encoding="UTF-8"?>
<!DOCTYPE svg PUBLIC "-//W3C//DTD SVG 1.1//EN" "http://www.w3.org/Graphics/SVG/1.1/DTD/svg11.dtd">
<!-- Creator: CorelDRAW 2018 (64-Bit) -->
<svg xmlns="http://www.w3.org/2000/svg" xml:space="preserve" width="1227px" height="724px" version="1.1" style="shape-rendering:geometricPrecision; text-rendering:geometricPrecision; image-rendering:optimizeQuality; fill-rule:evenodd; clip-rule:evenodd"
viewBox="0 0 120.74 71.26"
 xmlns:xlink="http://www.w3.org/1999/xlink">
 <defs>
  <style type="text/css">
   <![CDATA[
    .fil0 {fill:white;fill-rule:nonzero}
   ]]>
  </style>
 </defs>
 <g id="Слой_x0020_1">
  <metadata id="CorelCorpID_0Corel-Layer"/>
  <path class="fil0" d="M6.71 71.23l3.64 0 0 -20.09c-1.26,-0.46 -2.43,-0.59 -3.64,-0.62l0 20.71zm105.04 -0.07l0 -11.89 5.09 0c0.57,0 1.1,0.11 1.57,0.35 0.48,0.23 0.89,0.54 1.23,0.92 0.34,0.38 0.61,0.81 0.81,1.29 0.19,0.48 0.29,0.97 0.29,1.46 0,0.52 -0.09,1.03 -0.28,1.51 -0.18,0.48 -0.44,0.91 -0.77,1.29 -0.33,0.38 -0.73,0.68 -1.2,0.9 -0.47,0.22 -0.99,0.34 -1.57,0.34l-2.42 0 0 3.83 -2.75 0zm2.75 -6.23l2.26 0c0.32,0 0.6,-0.14 0.84,-0.42 0.23,-0.28 0.35,-0.69 0.35,-1.22 0,-0.28 -0.04,-0.52 -0.11,-0.72 -0.07,-0.2 -0.17,-0.37 -0.29,-0.51 -0.13,-0.13 -0.27,-0.23 -0.42,-0.29 -0.16,-0.06 -0.32,-0.09 -0.47,-0.09l-2.16 0 0 3.25zm-4.49 3.82l0 2.41 -8.39 0 0 -11.89 8.24 0 0 2.41 -5.48 0 0 2.31 4.71 0 0 2.23 -4.71 0 0 2.53 5.63 0zm-9.78 -7.07l-3.63 0 0 9.48 -2.76 0 0 -9.48 -3.65 0 0 -2.41 10.04 0 0 2.41zm-21.24 3.43c0,-0.71 0.14,-1.42 0.41,-2.13 0.27,-0.71 0.66,-1.35 1.17,-1.9 0.52,-0.56 1.15,-1.02 1.89,-1.36 0.74,-0.35 1.58,-0.52 2.52,-0.52 1.12,0 2.09,0.24 2.92,0.72 0.82,0.48 1.43,1.11 1.84,1.88l-2.12 1.47c-0.14,-0.31 -0.31,-0.57 -0.51,-0.78 -0.21,-0.21 -0.44,-0.37 -0.69,-0.5 -0.24,-0.13 -0.49,-0.22 -0.75,-0.27 -0.26,-0.05 -0.51,-0.07 -0.76,-0.07 -0.53,0 -0.98,0.1 -1.38,0.31 -0.39,0.22 -0.71,0.49 -0.97,0.82 -0.26,0.34 -0.45,0.72 -0.57,1.14 -0.13,0.43 -0.19,0.86 -0.19,1.29 0,0.47 0.07,0.93 0.22,1.36 0.15,0.44 0.36,0.82 0.63,1.16 0.27,0.33 0.61,0.6 0.99,0.79 0.39,0.2 0.82,0.3 1.31,0.3 0.24,0 0.5,-0.03 0.76,-0.09 0.26,-0.07 0.52,-0.16 0.76,-0.29 0.24,-0.13 0.46,-0.3 0.66,-0.5 0.2,-0.21 0.37,-0.46 0.49,-0.76l2.25 1.32c-0.18,0.43 -0.44,0.83 -0.8,1.17 -0.35,0.35 -0.76,0.64 -1.22,0.87 -0.46,0.24 -0.94,0.42 -1.46,0.54 -0.51,0.12 -1.02,0.18 -1.51,0.18 -0.87,0 -1.66,-0.17 -2.38,-0.52 -0.72,-0.36 -1.35,-0.82 -1.87,-1.4 -0.52,-0.58 -0.92,-1.24 -1.21,-1.98 -0.28,-0.74 -0.43,-1.49 -0.43,-2.25zm-6.89 -5.84l2.49 0 4.35 11.89 -2.82 0 -0.93 -2.66 -3.71 0 -0.91 2.66 -2.83 0 4.36 -11.89zm2.64 7.34l-1.4 -4.21 -1.43 4.21 2.83 0zm-11 4.55l0 -7.12 -2.59 5.18 -1.48 0 -2.58 -5.18 0 7.12 -2.76 0 0 -11.89 2.99 0 3.09 6.21 3.11 -6.21 2.98 0 0 11.89 -2.76 0zm-49.39 -17.51l0 17.58 3.64 0 0 -11.94c-0.61,-1.78 -1.56,-3.37 -2.79,-4.75 -0.27,-0.31 -0.55,-0.61 -0.85,-0.89zm8.04 -22.73c2.5,0 4.76,-1.01 6.4,-2.65 1.63,-1.64 2.65,-3.9 2.65,-6.4 0,-2.5 -1.02,-4.76 -2.65,-6.4l-0.01 0.01c-1.64,-1.64 -3.9,-2.66 -6.39,-2.66 -2.49,0 -4.75,1.01 -6.39,2.65l-0.01 0.01 0 0c-1.64,1.64 -2.65,3.9 -2.65,6.39 0,2.49 1.01,4.75 2.65,6.4l0 0c1.64,1.64 3.9,2.65 6.4,2.65zm15.46 -24.51c-3.96,-3.96 -9.42,-6.41 -15.46,-6.41 -0.09,0 -0.17,0 -0.26,0l-19.79 0 0 0.02 -2.32 0 0 43.03 3.65 0 0 -39.41 6.63 0 -0.04 0.03 11.11 0c0.26,-0.01 0.53,-0.02 0.79,-0.03l0.46 0 0 0c4.94,0.07 9.41,2.09 12.66,5.34 3.29,3.3 5.34,7.86 5.34,12.89 0,5.03 -2.05,9.59 -5.34,12.89 -3.3,3.3 -7.86,5.34 -12.89,5.34 -1.52,0 -2.99,-0.19 -4.4,-0.54l0 -2.63c1.4,0.4 2.87,0.62 4.4,0.62 4.32,0 8.24,-1.76 11.08,-4.59l0 -0.01 0 0c2.84,-2.84 4.6,-6.76 4.6,-11.08 0,-4.33 -1.76,-8.25 -4.6,-11.09l0 0.01c-2.84,-2.84 -6.76,-4.6 -11.08,-4.6 -4.32,0 -8.24,1.75 -11.08,4.59l-0.01 0.01 0 0c-2.84,2.84 -4.59,6.76 -4.59,11.08l0 0 0 21.18 0.14 0c1.16,0 2.27,0.11 3.33,0.31l0 -0.01 0.17 0.03 0 -11.47c0.3,0.36 0.62,0.71 0.95,1.04l0 0.01c0.91,0.91 1.94,1.71 3.05,2.38l0 9.44c0.65,0.34 1.28,0.72 1.89,1.15l0 0c0.6,0.43 1.19,0.9 1.75,1.43l0 -4.06c1.42,0.29 2.89,0.44 4.4,0.44 6.04,0 11.5,-2.45 15.46,-6.41 3.96,-3.95 6.41,-9.42 6.41,-15.46 0,-6.04 -2.45,-11.51 -6.41,-15.46zm-24.46 39.67c-0.68,-0.29 -1.38,-0.54 -2.09,-0.72l0 0c-0.37,-0.1 -0.75,-0.19 -1.13,-0.26l0 0.01c-1.06,-0.2 -2.17,-0.31 -3.33,-0.31l-6.84 0 0 26.45 3.88 0 0 -19.17 0 -2.28 0 -0.98 0.98 0 1.98 0c0.91,0 1.8,0.09 2.67,0.27 0.87,0.17 1.71,0.44 2.52,0.79 0.81,0.35 1.57,0.78 2.29,1.28l0 0.01c0.72,0.51 1.4,1.1 2.04,1.76 0.63,0.66 1.18,1.37 1.66,2.1 0.36,0.56 0.68,1.13 0.95,1.73l0.02 0 0.25 0.62c0.18,0.45 0.33,0.91 0.46,1.37l0 0c0.05,0.2 0.1,0.41 0.15,0.61l0.06 0 4.25 0 0.06 0c0.04,-0.2 0.09,-0.4 0.15,-0.61l0 0c0.13,-0.46 0.28,-0.92 0.46,-1.37l0.25 -0.62 0.02 0c0.27,-0.6 0.59,-1.17 0.95,-1.73 0.47,-0.73 1.03,-1.43 1.66,-2.1 0.63,-0.66 1.31,-1.25 2.04,-1.76l0 -0.01c0.71,-0.5 1.48,-0.93 2.29,-1.28 0.81,-0.35 1.65,-0.62 2.52,-0.79 0.87,-0.18 1.76,-0.27 2.66,-0.27l1.99 0 0.98 0 0 0.98 0 2.28 0 19.15 3.88 0 0 -26.43 -6.85 0c-1.15,0 -2.26,0.11 -3.32,0.31l0 -0.01c-0.38,0.07 -0.76,0.16 -1.13,0.26l0 0c-0.71,0.18 -1.41,0.43 -2.09,0.72 -1,0.43 -1.95,0.96 -2.84,1.6l0 0c-0.91,0.65 -1.79,1.41 -2.62,2.27l-0.21 0.23 -0.17 0.18 -0.2 0.23 -0.01 0 -0.15 0.18 0 0 -1.78 2.1 -0.67 0.79 -0.66 -0.79 -1.79 -2.1 0 0 -0.15 -0.18 0 0 -0.2 -0.23 -0.17 -0.18 -0.21 -0.23c-0.83,-0.86 -1.71,-1.62 -2.62,-2.27l0 0c-0.9,-0.64 -1.85,-1.17 -2.84,-1.6zm104.34 -3.64c0,0.28 -0.07,0.54 -0.19,0.78 -0.12,0.23 -0.29,0.44 -0.51,0.6 -0.22,0.17 -0.48,0.3 -0.78,0.4 -0.3,0.09 -0.64,0.14 -1.01,0.14 -0.37,0 -0.71,-0.05 -1.01,-0.14 -0.3,-0.1 -0.56,-0.23 -0.78,-0.4 -0.22,-0.16 -0.39,-0.37 -0.52,-0.6 -0.12,-0.24 -0.18,-0.5 -0.18,-0.78l1.28 0c0,0.11 0.04,0.21 0.1,0.31 0.07,0.1 0.15,0.19 0.26,0.26 0.11,0.07 0.24,0.13 0.38,0.17 0.15,0.05 0.31,0.07 0.47,0.07 0.31,0 0.58,-0.08 0.81,-0.23 0.23,-0.16 0.36,-0.35 0.41,-0.58l1.27 0zm-4.59 8.53l4.33 -5.87 1.58 0 0 9.16 -2.13 0 0 -5.73 -4.27 5.73 -1.65 0 0 -9.16 2.14 0 0 5.87zm-9.88 0l4.33 -5.87 1.58 0 0 9.16 -2.13 0 0 -5.73 -4.27 5.73 -1.65 0 0 -9.16 2.14 0 0 5.87zm-8.69 -2.24l0.48 0 2.68 -3.63 2.4 0 -3.3 4.42 3.6 4.74 -2.37 0 -2.81 -3.6 -0.68 0 0 3.6 -2.12 0 0 -9.16 2.12 0 0 3.63zm-11.6 0.87c0,-0.55 0.1,-1.1 0.31,-1.65 0.21,-0.54 0.51,-1.03 0.91,-1.46 0.39,-0.43 0.88,-0.78 1.45,-1.05 0.57,-0.26 1.22,-0.4 1.94,-0.4 0.86,0 1.61,0.19 2.25,0.56 0.63,0.37 1.1,0.85 1.41,1.44l-1.63 1.14c-0.1,-0.24 -0.23,-0.44 -0.39,-0.6 -0.16,-0.16 -0.34,-0.29 -0.53,-0.39 -0.19,-0.1 -0.38,-0.17 -0.58,-0.2 -0.2,-0.04 -0.39,-0.06 -0.58,-0.06 -0.41,0 -0.76,0.08 -1.06,0.24 -0.31,0.17 -0.56,0.38 -0.75,0.64 -0.2,0.25 -0.35,0.55 -0.44,0.87 -0.1,0.33 -0.15,0.66 -0.15,1 0,0.36 0.06,0.71 0.17,1.04 0.11,0.34 0.28,0.63 0.49,0.89 0.21,0.26 0.46,0.46 0.76,0.62 0.3,0.15 0.63,0.22 1,0.22 0.19,0 0.39,-0.02 0.59,-0.07 0.21,-0.05 0.4,-0.12 0.59,-0.22 0.18,-0.1 0.35,-0.23 0.51,-0.39 0.15,-0.16 0.28,-0.35 0.37,-0.58l1.74 1.02c-0.14,0.33 -0.34,0.63 -0.62,0.9 -0.27,0.27 -0.58,0.49 -0.94,0.67 -0.35,0.18 -0.72,0.32 -1.12,0.41 -0.4,0.1 -0.79,0.15 -1.17,0.15 -0.66,0 -1.27,-0.14 -1.83,-0.41 -0.56,-0.27 -1.04,-0.63 -1.44,-1.08 -0.4,-0.45 -0.71,-0.95 -0.93,-1.52 -0.22,-0.57 -0.33,-1.15 -0.33,-1.73zm-3.4 4.66l0 -5.49 -2 3.99 -1.14 0 -1.99 -3.99 0 5.49 -2.13 0 0 -9.16 2.31 0 2.38 4.78 2.4 -4.78 2.29 0 0 9.16 -2.12 0zm-15 -3.29l4.33 -5.87 1.58 0 0 9.16 -2.13 0 0 -5.73 -4.27 5.73 -1.65 0 0 -9.16 2.14 0 0 5.87zm-10.24 3.29l0 -9.16 3.92 0c0.44,0 0.85,0.09 1.21,0.27 0.37,0.18 0.68,0.41 0.95,0.71 0.26,0.29 0.47,0.62 0.62,0.99 0.15,0.37 0.23,0.74 0.23,1.12 0,0.41 -0.08,0.79 -0.22,1.16 -0.14,0.37 -0.34,0.71 -0.59,1 -0.26,0.29 -0.57,0.52 -0.93,0.69 -0.36,0.18 -0.76,0.26 -1.2,0.26l-1.87 0 0 2.96 -2.12 0zm2.12 -4.8l1.74 0c0.25,0 0.46,-0.11 0.64,-0.33 0.19,-0.21 0.28,-0.52 0.28,-0.94 0,-0.21 -0.03,-0.4 -0.09,-0.55 -0.05,-0.16 -0.13,-0.29 -0.22,-0.39 -0.1,-0.1 -0.21,-0.18 -0.33,-0.23 -0.12,-0.04 -0.24,-0.07 -0.36,-0.07l-1.66 0 0 2.51zm-42.58 -19.08l0 0 0 0c-2.18,-2.17 -3.52,-5.18 -3.52,-8.51 0,-3.33 1.34,-6.34 3.52,-8.51l0 -0.01c2.18,-2.17 5.19,-3.52 8.52,-3.52 3.33,0 6.34,1.35 8.51,3.52l0 0.01c2.18,2.18 3.53,5.19 3.53,8.51 0,3.33 -1.35,6.34 -3.52,8.51l-0.01 0.01c-2.17,2.17 -5.18,3.52 -8.51,3.52 -3.33,0 -6.34,-1.35 -8.52,-3.53zm4.52 -12.5l0 0 0.01 0c1.02,-1.02 2.43,-1.65 3.99,-1.65 1.56,0 2.97,0.63 3.99,1.65l0 0c1.01,1.02 1.65,2.43 1.65,3.99 0,1.56 -0.63,2.97 -1.65,3.99 -1.03,1.02 -2.44,1.65 -3.99,1.65 -1.56,0 -2.97,-0.63 -3.99,-1.65l-0.01 0c-1.01,-1.02 -1.64,-2.43 -1.64,-3.99 0,-1.56 0.63,-2.97 1.64,-3.99z"/>
 </g>
</svg>
