<?xml version="1.0" encoding="UTF-8"?>
<!DOCTYPE svg PUBLIC "-//W3C//DTD SVG 1.1//EN" "http://www.w3.org/Graphics/SVG/1.1/DTD/svg11.dtd">
<!-- Creator: CorelDRAW 2018 (64-Bit) -->
<svg xmlns="http://www.w3.org/2000/svg" xml:space="preserve" width="479px" height="467px" version="1.1" style="shape-rendering:geometricPrecision; text-rendering:geometricPrecision; image-rendering:optimizeQuality; fill-rule:evenodd; clip-rule:evenodd"
viewBox="0 0 30.09 29.35"
 xmlns:xlink="http://www.w3.org/1999/xlink">
 <defs>
  <style type="text/css">
   <![CDATA[
    .fil0 {fill:white;fill-rule:nonzero}
   ]]>
  </style>
 </defs>
 <g id="Слой_x0020_1">
  <metadata id="CorelCorpID_0Corel-Layer"/>
  <path class="fil0" d="M11.73 9.63l6.69 0 0 -7.69 -6.69 0 0 7.69zm0.81 17.78l5.01 0 0 -6.08 -5.01 0 0 6.08zm5.98 1.94l-6.95 0c-0.55,0 -0.97,-0.42 -0.97,-0.97l0 -8.02c0,-0.55 0.42,-0.97 0.97,-0.97l2.52 0 0 -3 -8.5 0 0 3 2.33 0c0.55,0 0.97,0.42 0.97,0.97l0 8.02c0,0.55 -0.42,0.97 -0.97,0.97l-6.95 0c-0.55,0 -0.97,-0.42 -0.97,-0.97l0 -8.02c0,-0.55 0.42,-0.97 0.97,-0.97l2.68 0 0 -3.97c0,-0.55 0.42,-0.97 0.97,-0.97l9.47 0 0 -2.88 -3.33 0c-0.55,0 -0.97,-0.42 -0.97,-0.97l0 -9.63c0,-0.55 0.42,-0.97 0.97,-0.97l8.63 0c0.55,0 0.97,0.42 0.97,0.97l0 9.63c0,0.55 -0.42,0.97 -0.97,0.97l-3.36 0 0 2.88 9.47 0c0.55,0 0.97,0.42 0.97,0.97l0 3.97 2.65 0c0.55,0 0.97,0.42 0.97,0.97l0 8.02c0,0.55 -0.42,0.97 -0.97,0.97l-6.95 0c-0.55,0 -0.97,-0.42 -0.97,-0.97l0 -8.02c0,-0.55 0.42,-0.97 0.97,-0.97l2.36 0 0 -3 -8.5 0 0 3 2.49 0c0.55,0 0.97,0.42 0.97,0.97l0 8.02c0,0.55 -0.42,0.97 -0.97,0.97zm-16.58 -1.94l5.01 0 0 -6.08 -5.01 0 0 6.08zm21.2 0l5.01 0 0 -6.08 -5.01 0 0 6.08z"/>
 </g>
</svg>
