<?xml version="1.0" encoding="UTF-8"?>
<!DOCTYPE svg PUBLIC "-//W3C//DTD SVG 1.1//EN" "http://www.w3.org/Graphics/SVG/1.1/DTD/svg11.dtd">
<!-- Creator: CorelDRAW 2018 (64-Bit) -->
<svg xmlns="http://www.w3.org/2000/svg" xml:space="preserve" width="1016px" height="902px" version="1.1" style="shape-rendering:geometricPrecision; text-rendering:geometricPrecision; image-rendering:optimizeQuality; fill-rule:evenodd; clip-rule:evenodd"
viewBox="0 0 320.92 284.73"
 xmlns:xlink="http://www.w3.org/1999/xlink">
 <defs>
  <style type="text/css">
   <![CDATA[
    .fil1 {fill:#FF9900}
    .fil0 {fill:#333333;fill-rule:nonzero}
   ]]>
  </style>
 </defs>
 <g id="Слой_x0020_1">
  <metadata id="CorelCorpID_0Corel-Layer"/>
  <g id="_1078430240">
   <path class="fil0" d="M77.55 86.64c0,47.85 38.79,86.64 86.64,86.64 47.86,0 86.65,-38.79 86.65,-86.64 0,-47.85 -38.79,-86.64 -86.65,-86.64 -47.83,0.05 -86.58,38.81 -86.64,86.64zm86.64 -74.69c41.26,0 74.7,33.44 74.7,74.69 0,41.25 -33.44,74.69 -74.7,74.69 -41.25,0 -74.69,-33.44 -74.69,-74.69 0.05,-41.23 33.46,-74.64 74.69,-74.69z"/>
   <path class="fil0" d="M280.29 188.02l-46.8 22.11c-6.47,-12.02 -18.86,-19.67 -32.51,-20.05l-43.2 -1.19c-6.84,-0.2 -13.56,-1.93 -19.64,-5.07l-4.4 -2.28c-22.51,-11.74 -49.34,-11.71 -71.83,0.07l0.28 -9.96c0.09,-3.3 -2.51,-6.04 -5.81,-6.13l-47.38 -1.31c-3.3,-0.09 -6.05,2.51 -6.14,5.81l-2.86 103.97c-0.09,3.3 2.51,6.05 5.81,6.14l47.38 1.31 0.16 0c3.24,0 5.89,-2.58 5.98,-5.82l0.14 -4.97 12.31 -6.59c4.83,-2.6 10.47,-3.22 15.75,-1.73l73.5 20.63c0.13,0.04 0.26,0.07 0.39,0.1 5.32,1.11 10.73,1.67 16.16,1.67 11.49,0 22.85,-2.48 33.3,-7.27 0.25,-0.12 0.5,-0.26 0.74,-0.41l106.57 -68.93c2.66,-1.72 3.51,-5.21 1.96,-7.96 -7.91,-14.04 -25.46,-19.39 -39.86,-12.14zm-268.18 80.33l2.53 -92.03 35.44 0.98 -2.53 92.03 -35.44 -0.98zm193.39 -1.56c-12.98,5.85 -27.48,7.47 -41.43,4.62l-73.31 -20.58c-8.25,-2.33 -17.08,-1.36 -24.63,2.7l-6.28 3.37 1.68 -61.19c19.93,-13.26 45.49,-14.62 66.72,-3.56l4.4 2.28c7.68,3.97 16.16,6.15 24.8,6.4l43.21 1.19c12.14,0.35 22.45,8.99 24.91,20.88l-64.37 -1.77c-3.29,-0.09 -6.04,2.51 -6.13,5.81 -0.09,3.29 2.51,6.04 5.81,6.13l71.03 1.96 0.16 0c3.24,0 5.88,-2.58 5.97,-5.81 0.07,-2.6 -0.12,-5.2 -0.58,-7.75l48.01 -22.69c0.05,-0.02 0.09,-0.04 0.14,-0.06 6.81,-3.45 15.04,-2.3 20.64,2.89l-100.75 65.18z"/>
   <polygon class="fil1" points="14.64,176.32 50.08,177.3 47.55,269.33 12.11,268.35 "/>
   <path class="fil0" d="M169.85 44.96c9.59,0 17.14,2.29 22.64,6.88 5.5,4.58 8.25,10.89 8.25,18.93 0,8.04 -2.75,14.36 -8.25,18.94 -5.5,4.58 -13.05,6.88 -22.64,6.88l-18.3 0 0 4.2 22.64 0 0.11 0 0 0c2.5,0.06 4.5,2.1 4.5,4.61 0,2.54 -2.06,4.6 -4.61,4.6l-22.64 0 0 22.72 -0.02 0c-0.19,2.76 -2.47,4.93 -5.27,4.93 -2.8,0 -5.09,-2.17 -5.28,-4.93l-0.01 0 0 -22.72 -4.7 0c-2.54,0 -4.6,-2.06 -4.6,-4.6 0,-2.48 1.95,-4.5 4.4,-4.6l0 -0.01 0.2 0 4.7 0 0 -4.2 -4.7 0c-2.54,0 -4.6,-2.06 -4.6,-4.61 0,-2.54 2.06,-4.6 4.6,-4.6l4.7 0 0 -42.42 28.88 0zm-0.32 42.42c6.7,0 11.82,-1.43 15.34,-4.28 3.53,-2.86 5.29,-6.97 5.29,-12.33 0,-5.36 -1.76,-9.46 -5.29,-12.32 -3.52,-2.86 -8.64,-4.28 -15.34,-4.28l-17.98 0 0 33.21 17.98 0z"/>
  </g>
 </g>
</svg>
