<?xml version="1.0" encoding="UTF-8"?>
<!DOCTYPE svg PUBLIC "-//W3C//DTD SVG 1.1//EN" "http://www.w3.org/Graphics/SVG/1.1/DTD/svg11.dtd">
<!-- Creator: CorelDRAW 2018 (64-Bit) -->
<svg xmlns="http://www.w3.org/2000/svg" xml:space="preserve" width="1181px" height="1085px" version="1.1" style="shape-rendering:geometricPrecision; text-rendering:geometricPrecision; image-rendering:optimizeQuality; fill-rule:evenodd; clip-rule:evenodd"
viewBox="0 0 431.67 396.69"
 xmlns:xlink="http://www.w3.org/1999/xlink">
 <defs>
  <style type="text/css">
   <![CDATA[
    .fil0 {fill:#333333}
    .fil1 {fill:#FF9900}
   ]]>
  </style>
 </defs>
 <g id="Слой_x0020_1">
  <metadata id="CorelCorpID_0Corel-Layer"/>
  <g id="_1078430432">
   <path class="fil0" d="M23.01 311.09l130.32 -130.32c3.26,-3.26 8.6,-3.26 11.86,0l68.98 68.98c3.26,3.26 3.26,8.6 0,11.86l-130.32 130.32c-3.26,3.26 -8.6,3.27 -11.86,0l-68.98 -68.98c-3.26,-3.26 -3.26,-8.6 0,-11.86zm16.02 4.73l119.03 -119.03 60.09 60.1 -119.02 119.02 -60.1 -60.09z"/>
   <path class="fil0" d="M161.48 342.03l153.42 -153.42c3.26,-3.26 8.6,-3.26 11.86,0l40.36 40.37c3.26,3.26 3.26,8.59 0,11.85l-153.42 153.42c-3.26,3.26 -8.59,3.26 -11.85,0l-40.37 -40.37c-3.26,-3.26 -3.26,-8.59 0,-11.85zm16.03 4.72l142.11 -142.11 31.47 31.47 -142.11 142.11 -31.47 -31.47z"/>
   <path class="fil0" d="M57.28 145.46l143.01 -143.02c3.26,-3.26 8.6,-3.25 11.85,0l46.88 46.88c3.25,3.25 3.25,8.59 0,11.85l-143.02 143.01c-3.25,3.26 -8.59,3.26 -11.85,0l-46.87 -46.87c-3.26,-3.26 -3.26,-8.59 0,-11.85zm16.03 4.72l131.7 -131.71 37.98 37.98 -131.71 131.7 -37.97 -37.97z"/>
   <path class="fil0" d="M170.03 162.51l72.76 -72.76c3.26,-3.26 8.59,-3.26 11.85,0l70.62 70.62c3.26,3.26 3.26,8.59 0,11.85l-72.76 72.76c-3.26,3.26 -8.59,3.26 -11.85,0l-70.62 -70.62c-3.26,-3.26 -3.26,-8.59 0,-11.85zm16.03 4.72l61.45 -61.45 61.72 61.72 -61.45 61.45 -61.72 -61.72z"/>
   <path class="fil0" d="M2.45 213.3l42.03 -42.03c3.26,-3.26 8.59,-3.26 11.85,0l40.37 40.37c3.25,3.25 3.25,8.59 0,11.85l-42.03 42.03c-3.26,3.26 -8.6,3.26 -11.86,0l-40.36 -40.37c-3.26,-3.26 -3.26,-8.59 0,-11.85zm16.02 4.72l30.73 -30.72 31.47 31.47 -30.73 30.72 -31.47 -31.47z"/>
   <path class="fil0" d="M334.97 168.54l42.03 -42.03c3.26,-3.26 8.6,-3.26 11.86,0l40.36 40.36c3.26,3.26 3.26,8.6 0,11.86l-42.03 42.03c-3.26,3.26 -8.59,3.26 -11.85,0l-40.37 -40.37c-3.26,-3.26 -3.26,-8.59 0,-11.85zm16.03 4.72l30.73 -30.72 31.46 31.47 -30.72 30.72 -31.47 -31.47z"/>
   <polygon class="fil1" points="413.19,174 381.73,142.54 351,173.26 382.47,204.73 "/>
   <rect class="fil1" transform="matrix(0.711945 -0.711945 0.711945 0.711945 39.0345 315.817)" width="167.18" height="84.4"/>
  </g>
 </g>
</svg>
