<?xml version="1.0" encoding="UTF-8"?>
<!DOCTYPE svg PUBLIC "-//W3C//DTD SVG 1.1//EN" "http://www.w3.org/Graphics/SVG/1.1/DTD/svg11.dtd">
<!-- Creator: CorelDRAW 2018 (64-Bit) -->
<svg xmlns="http://www.w3.org/2000/svg" xml:space="preserve" width="1181px" height="870px" version="1.1" style="shape-rendering:geometricPrecision; text-rendering:geometricPrecision; image-rendering:optimizeQuality; fill-rule:evenodd; clip-rule:evenodd"
viewBox="0 0 449.05 330.89"
 xmlns:xlink="http://www.w3.org/1999/xlink">
 <defs>
  <style type="text/css">
   <![CDATA[
    .fil2 {fill:#333333}
    .fil0 {fill:#FF9900}
    .fil1 {fill:#333333;fill-rule:nonzero}
   ]]>
  </style>
 </defs>
 <g id="Слой_x0020_1">
  <metadata id="CorelCorpID_0Corel-Layer"/>
  <g id="_1157471872">
   <circle class="fil0" transform="matrix(0.869365 0.165408 -0.165408 0.869366 382.298 67.4933)" r="62.97"/>
   <path class="fil1" d="M398.19 47.33l-42.22 28.73c-7.34,4.83 0.42,16.24 7.61,11.19l42.23 -28.72c3.06,-2.12 3.84,-6.3 1.75,-9.38 -2.1,-3.07 -6.27,-3.89 -9.37,-1.82z"/>
   <path class="fil1" d="M400.11 87.03c-0.7,3.68 -4.25,6.09 -7.92,5.39 -3.67,-0.7 -6.08,-4.25 -5.39,-7.92 0.7,-3.67 4.25,-6.08 7.92,-5.38 3.67,0.69 6.09,4.24 5.39,7.91z"/>
   <path class="fil1" d="M374.97 50.08c-0.7,3.68 -4.24,6.09 -7.92,5.39 -3.67,-0.7 -6.08,-4.25 -5.38,-7.92 0.7,-3.67 4.24,-6.08 7.91,-5.39 3.68,0.7 6.09,4.25 5.39,7.92z"/>
   <path class="fil1" d="M61.36 241.17l24.4 69.97c5.26,15.12 21.97,23.52 37.48,18.1 15.34,-5.36 23.46,-22.12 18.09,-37.48l-14.53 -41.69 20.84 -7.27c3.83,-1.34 5.86,-5.53 4.52,-9.36l-6.3 -18.07c1.16,-0.01 8.8,-0.05 143.6,-0.82 16.23,2.19 29.2,-13.55 23.76,-29.14 -23.62,-67.73 -33.66,-96.52 -56.36,-161.6 -2.59,-7.43 -8.74,-12.8 -16.45,-14.37 -0.09,-0.01 -0.18,-0.03 -0.27,-0.05 -7.47,-1.42 -14.95,1 -20.16,6.52l-117.3 102.32 -68.13 23.76c-26.79,9.34 -41.05,38.72 -31.66,65.59 8.56,24.56 33.85,38.4 58.47,33.59zm66.08 55.44c2.68,7.66 -1.37,16.05 -9.05,18.74 -7.72,2.69 -16.09,-1.46 -18.74,-9.05l-24.23 -69.48 27.79 -9.69c28.04,80.41 23.78,68.19 24.23,69.48zm-5.49 -60.43l-4.85 -13.9 13.9 -4.84 4.84 13.89 -13.89 4.85zm108.61 -210.04c2.54,-2.81 5.68,-2.55 6.93,-2.28 1.23,0.25 4.23,1.22 5.47,4.79l56.37 161.6c1.83,5.27 -2.63,10.59 -8.15,9.68 -0.99,-0.16 -1.48,-0.07 -4.09,-0.08l-59.62 -170.94c2.32,-2.05 2.61,-2.23 3.09,-2.77zm-15.04 13.19l56.02 160.61 -130.81 0.74 -25.7 -73.7 100.49 -87.65zm-198.74 163.4c-2.13,-6.09 -2.62,-12.65 -1.42,-18.96 2.45,-12.89 11.67,-23.57 24.04,-27.89l62.52 -21.81 24.23 69.47 -62.52 21.81c-19.16,6.68 -40.17,-3.47 -46.85,-22.62z"/>
   <path class="fil2" d="M337.71 117.02c9.46,8.38 20.19,13.44 31.89,15.67 36.3,6.9 71.35,-16.94 78.26,-53.24 6.9,-36.3 -16.94,-71.35 -53.24,-78.26 -36.3,-6.91 -71.35,16.94 -78.26,53.24 -2.82,14.81 -0.59,29.12 5.56,41.78 -5.87,8.06 -16.23,14.23 -12.3,20 2.65,3.9 16.19,1.4 28.09,0.81zm55.28 -104.04c30.01,5.71 49.7,34.66 43.99,64.67 -5.7,30.01 -34.66,49.71 -64.67,44 -30.01,-5.71 -49.7,-34.67 -43.99,-64.67 5.71,-30.01 34.66,-49.71 64.67,-44z"/>
   <path class="fil0" d="M127.44 296.61c2.68,7.66 -1.37,16.05 -9.05,18.74 -7.72,2.69 -16.09,-1.46 -18.74,-9.05l-24.23 -69.48 27.79 -9.69c28.04,80.41 23.78,68.19 24.23,69.48zm-110.66 -93.88c-2.13,-6.09 -2.62,-12.65 -1.42,-18.96 2.45,-12.89 11.67,-23.57 24.04,-27.89l62.52 -21.81 24.23 69.47 -62.52 21.81c-19.16,6.68 -40.17,-3.47 -46.85,-22.62z"/>
  </g>
 </g>
</svg>
