<?xml version="1.0" encoding="UTF-8"?>
<!DOCTYPE svg PUBLIC "-//W3C//DTD SVG 1.1//EN" "http://www.w3.org/Graphics/SVG/1.1/DTD/svg11.dtd">
<!-- Creator: CorelDRAW 2018 (64-Bit) -->
<svg xmlns="http://www.w3.org/2000/svg" xml:space="preserve" width="1181px" height="1364px" version="1.1" style="shape-rendering:geometricPrecision; text-rendering:geometricPrecision; image-rendering:optimizeQuality; fill-rule:evenodd; clip-rule:evenodd"
viewBox="0 0 414.2 478.21"
 xmlns:xlink="http://www.w3.org/1999/xlink">
 <defs>
  <style type="text/css">
   <![CDATA[
    .fil2 {fill:#333333}
    .fil0 {fill:#FF9900}
    .fil3 {fill:#FF9900}
    .fil1 {fill:#333333;fill-rule:nonzero}
   ]]>
  </style>
 </defs>
 <g id="Слой_x0020_1">
  <metadata id="CorelCorpID_0Corel-Layer"/>
  <g id="_1159567392">
   <polygon class="fil0" points="86.59,203.1 130.13,203.1 130.13,246.63 86.59,246.63 "/>
   <polygon class="fil0" points="86.59,294.76 130.13,294.76 130.13,338.29 86.59,338.29 "/>
   <polygon class="fil0" points="86.59,111.43 130.13,111.43 130.13,154.96 86.59,154.96 "/>
   <path class="fil1" d="M313.62 28.19l-85.23 0 0 -6.37c-0.01,-12.05 -9.78,-21.82 -21.83,-21.82l-93.27 0c-12.04,0.01 -21.8,9.77 -21.81,21.82l0 6.37 -85.25 0c-3.44,0 -6.23,2.79 -6.23,6.23l0 382.54c0,3.45 2.79,6.24 6.23,6.23 44.51,0 89.02,0.02 133.53,0.02 0.16,0 0.32,-0.01 0.48,-0.02l0.11 0 0 0c7.52,-0.57 7.52,-11.85 0,-12.41l0 -0.04 -127.89 0 0 -370.09 79 0 0 22.65 -48.26 0c-3.44,0 -6.23,2.79 -6.23,6.23l0 310.66c0,3.44 2.79,6.23 6.23,6.23l128.47 0 0 -0.03c7.64,-0.48 7.64,-11.94 0,-12.42l0 -0.01 -0.35 0c-0.05,0 -0.1,-0.01 -0.15,-0.01 -40.58,0 -81.16,0.01 -121.74,0.01l0 -298.2 220.98 0 0 204.17 0.04 0 0 0.17c0,8.31 12.46,8.31 12.46,0 0,-70.19 -0.04,-140.38 -0.04,-210.57 0,-3.44 -2.79,-6.23 -6.23,-6.23l-48.25 0 0 -22.65 79 0c0,68.5 0,137 0,205.5 0,8.31 12.46,8.31 12.46,0l0 -2.7 0 -209.03c0,-3.44 -2.79,-6.23 -6.23,-6.23zm-209.7 -6.37c0.01,-5.18 4.2,-9.37 9.37,-9.36l93.27 0c5.16,0 9.35,4.19 9.36,9.36l0 41.48 -112 0 0 -41.48z"/>
   <path class="fil1" d="M80.38 259.08l55.98 0c3.44,0 6.23,-2.79 6.23,-6.23l0 -46.57 12.54 -12.54c5.67,-5.87 -2.94,-14.47 -8.81,-8.8l-6.66 6.66c-0.99,-0.63 -2.13,-0.96 -3.3,-0.97l-55.98 0c-3.44,0.01 -6.23,2.79 -6.23,6.23l0 55.99c0,3.44 2.79,6.23 6.23,6.23zm6.21 -55.99l41.57 0 -19.75 19.76 -4.97 -4.97c-5.86,-5.67 -14.48,2.94 -8.81,8.81l9.37 9.37c2.44,2.43 6.39,2.43 8.82,0l17.31 -17.32 0 27.88 -43.54 0 0 -43.53z"/>
   <path class="fil1" d="M80.38 350.74l55.98 0c3.44,0 6.23,-2.79 6.23,-6.23l0 -46.56 12.54 -12.55c2.51,-2.41 2.54,-6.41 0.08,-8.88 -2.47,-2.46 -6.47,-2.42 -8.89,0.08l-6.66 6.66c-0.99,-0.63 -2.13,-0.96 -3.3,-0.97l-55.98 0c-3.44,0.01 -6.23,2.8 -6.23,6.23l0 55.99c0,3.44 2.79,6.23 6.23,6.23zm6.21 -55.99l41.57 0 -19.75 19.76 -4.97 -4.97c-5.86,-5.67 -14.48,2.94 -8.81,8.81l9.37 9.37c2.44,2.44 6.39,2.44 8.82,0l17.31 -17.31 0 27.87 -43.54 0 0 -43.53z"/>
   <path class="fil1" d="M80.38 167.42l55.98 0c3.44,0 6.23,-2.79 6.23,-6.23l0 -46.57 12.54 -12.54c5.67,-5.87 -2.94,-14.47 -8.81,-8.81l-6.66 6.67c-0.99,-0.63 -2.13,-0.96 -3.3,-0.97l-55.98 0c-3.44,0.01 -6.23,2.79 -6.23,6.23l0 55.99c0,3.44 2.79,6.23 6.23,6.23zm6.21 -55.99l41.57 0 -19.75 19.75 -4.97 -4.96c-2.42,-2.51 -6.42,-2.54 -8.88,-0.08 -2.46,2.46 -2.43,6.46 0.07,8.89l9.37 9.37c2.44,2.43 6.39,2.43 8.82,0l17.31 -17.32 0 27.88 -43.54 0 0 -43.53z"/>
   <path class="fil1" d="M165.81 139.43l73.66 0c8.31,0 8.31,-12.46 0,-12.46l-73.66 0c-8.31,0 -8.31,12.46 0,12.46z"/>
   <path class="fil1" d="M165.81 231.09l73.66 0c8.31,0 8.31,-12.46 0,-12.46l-73.66 0c-8.31,0 -8.31,12.46 0,12.46z"/>
   <path class="fil1" d="M165.81 322.75l73.66 0c8.31,0 8.31,-12.46 0,-12.46l-73.66 0c-8.31,0 -8.31,12.46 0,12.46z"/>
   <g>
    <path class="fil2" d="M408.79 371.93l-100.86 100.86c-2.52,2.53 -6.65,2.53 -9.17,0l-41.06 -41.05c-2.52,-2.53 -2.52,-6.65 0,-9.18l100.86 -100.86c2.52,-2.52 6.65,-2.52 9.17,0l41.06 41.06c2.52,2.52 2.52,6.65 0,9.17zm-12.41 -3.65l-92.11 92.11 -34.17 -34.17 92.11 -92.11 34.17 34.17z"/>
    <rect class="fil3" transform="matrix(-0.574195 0.574195 -0.574195 -0.574195 396.385 368.278)" width="160.42" height="59.51"/>
   </g>
   <g>
    <path class="fil2" d="M297.53 375.46l-100.85 100.86c-2.53,2.52 -6.66,2.52 -9.18,0l-41.05 -41.06c-2.53,-2.52 -2.53,-6.65 0,-9.17l100.85 -100.86c2.53,-2.52 6.66,-2.52 9.18,0l41.05 41.05c2.53,2.53 2.53,6.65 0,9.18zm-12.4 -3.66l-92.11 92.11 -34.17 -34.17 92.11 -92.11 34.17 34.17z"/>
    <rect class="fil3" transform="matrix(-0.574195 0.574195 -0.574195 -0.574195 285.13 371.802)" width="160.42" height="59.51"/>
   </g>
   <g>
    <path class="fil2" d="M412.31 260.68l-100.86 100.86c-2.52,2.52 -6.65,2.52 -9.17,0l-41.06 -41.06c-2.52,-2.52 -2.52,-6.65 0,-9.17l100.86 -100.86c2.53,-2.52 6.65,-2.52 9.18,0l41.05 41.06c2.53,2.52 2.53,6.65 0,9.17zm-12.4 -3.66l-92.11 92.11 -34.17 -34.17 92.11 -92.11 34.17 34.17z"/>
    <rect class="fil3" transform="matrix(-0.574195 0.574195 -0.574195 -0.574195 399.909 257.023)" width="160.42" height="59.51"/>
   </g>
  </g>
 </g>
</svg>
