<?xml version="1.0" encoding="UTF-8"?>
<!DOCTYPE svg PUBLIC "-//W3C//DTD SVG 1.1//EN" "http://www.w3.org/Graphics/SVG/1.1/DTD/svg11.dtd">
<!-- Creator: CorelDRAW 2018 (64-Bit) -->
<svg xmlns="http://www.w3.org/2000/svg" xml:space="preserve" width="242px" height="137px" version="1.1" style="shape-rendering:geometricPrecision; text-rendering:geometricPrecision; image-rendering:optimizeQuality; fill-rule:evenodd; clip-rule:evenodd"
viewBox="0 0 2.5 1.42"
 xmlns:xlink="http://www.w3.org/1999/xlink">
 <defs>
  <style type="text/css">
   <![CDATA[
    .fil0 {fill:white}
   ]]>
  </style>
 </defs>
 <g id="Слой_x0020_1">
  <metadata id="CorelCorpID_0Corel-Layer"/>
  <path class="fil0" d="M2.4 1.15c-0.07,-0.09 -0.16,-0.17 -0.25,-0.25 -0.07,-0.07 -0.07,-0.11 -0.01,-0.2 0.06,-0.09 0.13,-0.18 0.2,-0.27 0.06,-0.09 0.12,-0.17 0.16,-0.27 0.02,-0.07 0,-0.1 -0.07,-0.11 -0.01,0 -0.02,0 -0.03,0l-0.4 0c-0.05,0 -0.08,0.02 -0.09,0.06 -0.03,0.06 -0.05,0.12 -0.08,0.18 -0.06,0.12 -0.13,0.25 -0.23,0.35 -0.02,0.02 -0.05,0.05 -0.08,0.04 -0.05,-0.01 -0.06,-0.09 -0.06,-0.11l0 -0.46c-0.01,-0.07 -0.03,-0.1 -0.09,-0.11l-0.41 0c-0.06,0 -0.08,0.02 -0.11,0.06 -0.02,0.02 -0.03,0.03 0.01,0.04 0.07,0.01 0.11,0.05 0.12,0.12 0.01,0.11 0.01,0.22 0,0.33 0,0.03 -0.01,0.06 -0.02,0.09 -0.02,0.05 -0.05,0.06 -0.09,0.03 -0.04,-0.02 -0.07,-0.06 -0.1,-0.1 -0.09,-0.14 -0.17,-0.29 -0.24,-0.45 -0.02,-0.04 -0.05,-0.07 -0.1,-0.07 -0.12,0 -0.23,0 -0.35,0 -0.08,0 -0.1,0.04 -0.07,0.1 0.13,0.29 0.28,0.57 0.46,0.82 0.1,0.14 0.21,0.25 0.36,0.33 0.16,0.1 0.33,0.12 0.52,0.12 0.08,-0.01 0.11,-0.03 0.11,-0.12 0.01,-0.06 0.01,-0.11 0.04,-0.17 0.03,-0.05 0.07,-0.06 0.12,-0.03 0.03,0.02 0.05,0.04 0.07,0.06 0.05,0.05 0.09,0.11 0.15,0.16 0.06,0.07 0.13,0.1 0.23,0.1l0.36 0c0.06,-0.01 0.09,-0.08 0.06,-0.15 -0.03,-0.04 -0.06,-0.08 -0.09,-0.12z"/>
 </g>
</svg>
